<svg xmlns="http://www.w3.org/2000/svg" width="40" height="40" viewBox="0 0 40 40">
  <g id="Group_3786" data-name="Group 3786" transform="translate(-229 -766)">
    <path id="Path_3790" data-name="Path 3790" d="M53.485,44.37a1.246,1.246,0,1,1-1.243-1.16A1.2,1.2,0,0,1,53.485,44.37Z" transform="translate(196 746)" fill="#fff" fill-rule="evenodd"/>
    <path id="Path_3791" data-name="Path 3791" d="M53.675,35.216a1.305,1.305,0,0,0-.292-.7,1.326,1.326,0,0,0-2.062-.027,1.31,1.31,0,0,0-.315.727,1.265,1.265,0,0,0,0,.218l.553,5.908a.709.709,0,0,0,.226.453.828.828,0,0,0,1.068.039.715.715,0,0,0,.271-.492l.553-5.908A1.234,1.234,0,0,0,53.675,35.216Z" transform="translate(196 746)" fill="#fff" fill-rule="evenodd"/>
    <path id="Path_3788" data-name="Path 3788" d="M52,60A20,20,0,1,0,32,40,20,20,0,0,0,52,60Z" transform="translate(197 746)" fill="#fff" fill-rule="evenodd"/>
    <g id="Icon_info" data-name="Icon / info" transform="translate(247 777)">
      <path id="Info" d="M14.142,3.857V0H18V3.857ZM0,3.857V0H11.571V3.857Z" transform="translate(0 18) rotate(-90)" fill="#4569a0"/>
    </g>
  </g>
</svg>
